<svg width="18" height="18" xmlns="http://www.w3.org/2000/svg">

 <g>
  <title>background</title>
  <rect fill="none" id="canvas_background" height="602" width="802" y="-1" x="-1"/>
 </g>
 <g>
  <title>Layer 1</title>
  <g id="surface1">
   <path stroke="null" id="svg_1" fill-rule="nonzero" fill="rgb(0%,0%,0%)" d="m14.76529,12.48367c0,0 0,-4.56654 0,-6.00058c0,-1.43404 -1.73339,-2.86808 -3.4634,-2.86808c-1.15786,0 -1.15786,0 -1.15786,0l0,-1.90998l-3.4634,2.86808l3.4634,2.86497l0,-1.90998c0,0 0.57893,0 1.15786,0c0.57554,0 1.15447,0.47594 1.15447,0.95499c0,0.47594 0,6.00058 0,6.00058c-0.68726,0.32973 -1.15447,0.94254 -1.15447,1.64246c0,1.06075 1.02581,1.91309 2.30893,1.91309c1.27973,0 2.30893,-0.85233 2.30893,-1.91309c0,-0.69991 -0.47059,-1.31273 -1.15447,-1.64246zm-1.15447,2.59745c-0.6331,0 -1.15447,-0.43239 -1.15447,-0.95499c0,-0.5226 0.52137,-0.95499 1.15447,-0.95499c0.62971,0 1.15447,0.43239 1.15447,0.95499c0,0.5226 -0.52476,0.95499 -1.15447,0.95499zm-9.23913,-12.4211c-1.28312,0 -2.30893,0.85233 -2.30893,1.91309c0,0.69991 0.4672,1.31273 1.15447,1.63935l0,6.25566c-0.68726,0.32973 -1.15447,0.94254 -1.15447,1.64246c0,1.06075 1.02581,1.91309 2.30893,1.91309c1.27974,0 2.30894,-0.85233 2.30894,-1.91309c0,-0.69991 -0.47059,-1.31273 -1.15448,-1.64246l0,-6.25566c0.68388,-0.32663 1.15448,-0.93944 1.15448,-1.63935c0,-1.06075 -1.0292,-1.91309 -2.30894,-1.91309zm0,12.4211c-0.6331,0 -1.15447,-0.43239 -1.15447,-0.95499c0,-0.5226 0.52137,-0.95499 1.15447,-0.95499c0.62972,0 1.15447,0.43239 1.15447,0.95499c0,0.5226 -0.52475,0.95499 -1.15447,0.95499zm0,-9.55302c-0.6331,0 -1.15447,-0.4355 -1.15447,-0.95499c0,-0.5226 0.52137,-0.9581 1.15447,-0.9581c0.62972,0 1.15447,0.4355 1.15447,0.9581c0,0.51949 -0.52475,0.95499 -1.15447,0.95499zm0,0"/>
  </g>
 </g>
</svg>